# xmcd CD database file generated by LOLA_Freedb v0.9beta0
# 
# Track frame offsets:
#      151
#      11090
#      27508
#      39193
#      49386
#      68808
#      85382
# 
# Disc length: 1258 seconds
# 
# Revision: 0 
# Processed by: cddbd v1.5.2PL0 Copyright (c) Steve Scherf et al.
# Submitted via: LOLA_Freedb v0.9beta0
# 
DISCID=5704e807
DTITLE=Ramona and Hannes - Weihnachten mit Ramona and Hannes
DYEAR=1900
DGENRE=
TTITLE0=Ramona and Hannes - Wenn es Weihnachtet
TTITLE1=Ramona and Hannes - Gefrorene Tränen
TTITLE2=Ramona and Hannes - 17 Weihnachtskugeln
TTITLE3=Ramona and Hannes - Überall zuhaus
TTITLE4=Ramona and Hannes - Wern das Licht sucht
TTITLE5=Ramona and Hannes - Endlich ein Wunsch
TTITLE6=Ramona and Hannes - Leise rieselt der Schnee
EXTD=
EXTT0=
EXTT1=
EXTT2=
EXTT3=
EXTT4=
EXTT5=
EXTT6=
PLAYORDER=
